<svg xmlns="http://www.w3.org/2000/svg" width="1200" height="750" viewBox="0 0 1200 750">
  
  <defs><linearGradient id="fbg" x1="0" y1="0" x2="1" y2="1">
    <stop offset="0%" stop-color="#f8fafc"/><stop offset="100%" stop-color="#dbeafe22"/>
  </linearGradient></defs>
  <rect width="1200" height="750" fill="url(#fbg)"/>
  <line x1="80" y1="0" x2="80" y2="750" stroke="rgba(148,163,184,0.10)"/><line x1="160" y1="0" x2="160" y2="750" stroke="rgba(148,163,184,0.10)"/><line x1="240" y1="0" x2="240" y2="750" stroke="rgba(148,163,184,0.10)"/><line x1="320" y1="0" x2="320" y2="750" stroke="rgba(148,163,184,0.10)"/><line x1="400" y1="0" x2="400" y2="750" stroke="rgba(148,163,184,0.10)"/><line x1="480" y1="0" x2="480" y2="750" stroke="rgba(148,163,184,0.10)"/><line x1="560" y1="0" x2="560" y2="750" stroke="rgba(148,163,184,0.10)"/><line x1="640" y1="0" x2="640" y2="750" stroke="rgba(148,163,184,0.10)"/><line x1="720" y1="0" x2="720" y2="750" stroke="rgba(148,163,184,0.10)"/><line x1="800" y1="0" x2="800" y2="750" stroke="rgba(148,163,184,0.10)"/><line x1="880" y1="0" x2="880" y2="750" stroke="rgba(148,163,184,0.10)"/><line x1="960" y1="0" x2="960" y2="750" stroke="rgba(148,163,184,0.10)"/><line x1="1040" y1="0" x2="1040" y2="750" stroke="rgba(148,163,184,0.10)"/><line x1="1120" y1="0" x2="1120" y2="750" stroke="rgba(148,163,184,0.10)"/><line x1="0" y1="80" x2="1200" y2="80" stroke="rgba(148,163,184,0.10)"/><line x1="0" y1="160" x2="1200" y2="160" stroke="rgba(148,163,184,0.10)"/><line x1="0" y1="240" x2="1200" y2="240" stroke="rgba(148,163,184,0.10)"/><line x1="0" y1="320" x2="1200" y2="320" stroke="rgba(148,163,184,0.10)"/><line x1="0" y1="400" x2="1200" y2="400" stroke="rgba(148,163,184,0.10)"/><line x1="0" y1="480" x2="1200" y2="480" stroke="rgba(148,163,184,0.10)"/><line x1="0" y1="560" x2="1200" y2="560" stroke="rgba(148,163,184,0.10)"/><line x1="0" y1="640" x2="1200" y2="640" stroke="rgba(148,163,184,0.10)"/><line x1="0" y1="720" x2="1200" y2="720" stroke="rgba(148,163,184,0.10)"/>
  <defs><marker id="arr" viewBox="0 0 10 10" refX="9" refY="5" markerWidth="8" markerHeight="8" orient="auto"><path d="M 0 0 L 10 5 L 0 10 z" fill="#2563eb"/></marker></defs>
  <g transform="translate(60,55)">
    
  <rect width="1080" height="44" rx="14" fill="#e2e8f0"/>
  <rect y="24" width="1080" height="20" fill="#e2e8f0"/>
  <circle cx="24" cy="22" r="6" fill="#ff5f57"/><circle cx="44" cy="22" r="6" fill="#febc2e"/><circle cx="64" cy="22" r="6" fill="#28c840"/>
  <text x="86" y="27" font-family="'Segoe UI', 'PingFang SC', 'Microsoft YaHei', sans-serif" font-size="13.5" fill="#64748b">数据库可视化工具 — 结构图 + 统计图表</text>
    <rect y="44" width="1080" height="596" fill="#fbfdff"/>
    <g font-family="'Segoe UI', 'PingFang SC', 'Microsoft YaHei', sans-serif">
      <g transform="translate(60,120)">
        <rect width="210" height="150" rx="10" fill="#fff" stroke="#bfdbfe" stroke-width="2"/>
        <rect width="210" height="40" rx="10" fill="#2563eb"/><rect y="22" width="210" height="18" fill="#2563eb"/>
        <text x="105" y="26" text-anchor="middle" font-size="14" fill="#fff" font-weight="700">users</text>
        <text x="18" y="70" font-size="12.5" fill="#475569">id · PK</text><text x="18" y="95" font-size="12.5" fill="#475569">name</text><text x="18" y="120" font-size="12.5" fill="#475569">email</text>
      </g>
      <g transform="translate(330,240)">
        <rect width="210" height="150" rx="10" fill="#fff" stroke="#bfdbfe" stroke-width="2"/>
        <rect width="210" height="40" rx="10" fill="#0ea5e9"/><rect y="22" width="210" height="18" fill="#0ea5e9"/>
        <text x="105" y="26" text-anchor="middle" font-size="14" fill="#fff" font-weight="700">orders</text>
        <text x="18" y="70" font-size="12.5" fill="#475569">id · PK</text><text x="18" y="95" font-size="12.5" fill="#475569">order_no</text><text x="18" y="120" font-size="12.5" fill="#475569">amount</text>
      </g>
      <path d="M 165 270 C 165 330, 380 210, 385 245" fill="none" stroke="#2563eb" stroke-width="2.5" marker-end="url(#arr)"/>
    </g>
    <g transform="translate(640,120)">
      <rect width="440" height="150" rx="10" fill="#f8fafc" stroke="#e2e8f0"/>
      <rect x="0" y="120" width="440" height="2" fill="#cbd5e1"/>
      <rect x="44" y="50" width="46" height="70" rx="6" fill="#2563eb"/><rect x="144" y="15" width="46" height="105" rx="6" fill="#22c55e"/><rect x="244" y="35" width="46" height="85" rx="6" fill="#f59e0b"/><rect x="344" y="5" width="46" height="115" rx="6" fill="#8b5cf6"/>
    </g>
    <g transform="translate(640,320)">
      <rect width="440" height="150" rx="10" fill="#f8fafc" stroke="#e2e8f0"/>
      <circle cx="90" cy="75" r="48" fill="none" stroke="#2563eb" stroke-width="22" stroke-dasharray="150 302" transform="rotate(-90 90 75)"/>
      <circle cx="90" cy="75" r="48" fill="none" stroke="#22c55e" stroke-width="22" stroke-dasharray="90 302" stroke-dashoffset="-150" transform="rotate(-90 90 75)"/>
      <rect x="180" y="50" width="13" height="13" rx="3" fill="#2563eb"/><text x="200" y="61" font-family="'Segoe UI', 'PingFang SC', 'Microsoft YaHei', sans-serif" font-size="12.5" fill="#475569">系列 A</text><rect x="180" y="92" width="13" height="13" rx="3" fill="#22c55e"/><text x="200" y="103" font-family="'Segoe UI', 'PingFang SC', 'Microsoft YaHei', sans-serif" font-size="12.5" fill="#475569">系列 B</text>
      <polyline points="330,110 370,70 410,85" fill="none" stroke="#f59e0b" stroke-width="3"/>
    </g>
  </g>
</svg>