<svg xmlns="http://www.w3.org/2000/svg" width="1200" height="750" viewBox="0 0 1200 750">
  
  <defs><linearGradient id="fbg" x1="0" y1="0" x2="1" y2="1">
    <stop offset="0%" stop-color="#f8fafc"/><stop offset="100%" stop-color="#dbeafe22"/>
  </linearGradient></defs>
  <rect width="1200" height="750" fill="url(#fbg)"/>
  <line x1="80" y1="0" x2="80" y2="750" stroke="rgba(148,163,184,0.10)"/><line x1="160" y1="0" x2="160" y2="750" stroke="rgba(148,163,184,0.10)"/><line x1="240" y1="0" x2="240" y2="750" stroke="rgba(148,163,184,0.10)"/><line x1="320" y1="0" x2="320" y2="750" stroke="rgba(148,163,184,0.10)"/><line x1="400" y1="0" x2="400" y2="750" stroke="rgba(148,163,184,0.10)"/><line x1="480" y1="0" x2="480" y2="750" stroke="rgba(148,163,184,0.10)"/><line x1="560" y1="0" x2="560" y2="750" stroke="rgba(148,163,184,0.10)"/><line x1="640" y1="0" x2="640" y2="750" stroke="rgba(148,163,184,0.10)"/><line x1="720" y1="0" x2="720" y2="750" stroke="rgba(148,163,184,0.10)"/><line x1="800" y1="0" x2="800" y2="750" stroke="rgba(148,163,184,0.10)"/><line x1="880" y1="0" x2="880" y2="750" stroke="rgba(148,163,184,0.10)"/><line x1="960" y1="0" x2="960" y2="750" stroke="rgba(148,163,184,0.10)"/><line x1="1040" y1="0" x2="1040" y2="750" stroke="rgba(148,163,184,0.10)"/><line x1="1120" y1="0" x2="1120" y2="750" stroke="rgba(148,163,184,0.10)"/><line x1="0" y1="80" x2="1200" y2="80" stroke="rgba(148,163,184,0.10)"/><line x1="0" y1="160" x2="1200" y2="160" stroke="rgba(148,163,184,0.10)"/><line x1="0" y1="240" x2="1200" y2="240" stroke="rgba(148,163,184,0.10)"/><line x1="0" y1="320" x2="1200" y2="320" stroke="rgba(148,163,184,0.10)"/><line x1="0" y1="400" x2="1200" y2="400" stroke="rgba(148,163,184,0.10)"/><line x1="0" y1="480" x2="1200" y2="480" stroke="rgba(148,163,184,0.10)"/><line x1="0" y1="560" x2="1200" y2="560" stroke="rgba(148,163,184,0.10)"/><line x1="0" y1="640" x2="1200" y2="640" stroke="rgba(148,163,184,0.10)"/><line x1="0" y1="720" x2="1200" y2="720" stroke="rgba(148,163,184,0.10)"/>
  <g transform="translate(60,55)">
    
  <rect width="1080" height="44" rx="14" fill="#1e293b"/>
  <rect y="24" width="1080" height="20" fill="#1e293b"/>
  <circle cx="24" cy="22" r="6" fill="#ff5f57"/><circle cx="44" cy="22" r="6" fill="#febc2e"/><circle cx="64" cy="22" r="6" fill="#28c840"/>
  <text x="86" y="27" font-family="'Segoe UI', 'PingFang SC', 'Microsoft YaHei', sans-serif" font-size="13.5" fill="#64748b">数据库管理控制台 — mysql_mulpro</text>
    <rect y="44" width="1080" height="596" rx="0" fill="#f8fafc"/>
    <rect y="44" width="200" height="596" fill="#1e293b"/>
    <rect y="44" width="6" height="596" fill="#3b82f6"/>
    <g fill="#475569">
      <rect x="24" y="80" width="120" height="12" rx="6" fill="#3b82f6"/>
      <rect x="24" y="118" width="100" height="12" rx="6"/><rect x="24" y="156" width="110" height="12" rx="6"/>
      <rect x="24" y="194" width="90" height="12" rx="6"/><rect x="24" y="232" width="105" height="12" rx="6"/>
    </g>
    <g font-family="'Segoe UI', 'PingFang SC', 'Microsoft YaHei', sans-serif" font-size="13" fill="#475569">
      <rect x="232" y="76" width="330" height="30" rx="6" fill="#fff" stroke="#e2e8f0"/>
      <rect x="600" y="76" width="92" height="30" rx="6" fill="#3b82f6"/>
      <rect x="704" y="76" width="92" height="30" rx="6" fill="#fff" stroke="#e2e8f0"/>
      <rect x="232" y="130" width="656" height="36" fill="#eef2ff"/>
      <text x="248" y="153" font-weight="600">id</text><text x="330" y="153" font-weight="600">name</text><text x="470" y="153" font-weight="600">email</text><text x="640" y="153" font-weight="600">status</text>
      <rect x="232" y="170" width="656" height="36" fill="#f8fafc" stroke="#f1f5f9"/><rect x="232" y="214" width="656" height="36" fill="#fff" stroke="#f1f5f9"/><rect x="232" y="258" width="656" height="36" fill="#f8fafc" stroke="#f1f5f9"/><rect x="232" y="302" width="656" height="36" fill="#fff" stroke="#f1f5f9"/><rect x="232" y="346" width="656" height="36" fill="#f8fafc" stroke="#f1f5f9"/>
      <text x="248" y="194">1</text><text x="330" y="194">管理员</text><text x="470" y="194">admin@demo.test</text><text x="640" y="194">active</text>
      <text x="248" y="238">2</text><text x="330" y="238">张三</text><text x="470" y="238">zhangsan@demo.test</text><text x="640" y="238">active</text>
      <text x="248" y="282">3</text><text x="330" y="282">李四</text><text x="470" y="282">lisi@demo.test</text><text x="640" y="282">active</text>
    </g>
    <g transform="translate(930,130)">
      <rect width="180" height="86" rx="10" fill="#fff" stroke="#e2e8f0"/>
      <text x="16" y="38" font-family="'Segoe UI', 'PingFang SC', 'Microsoft YaHei', sans-serif" font-size="24" font-weight="700" fill="#1e293b">6</text>
      <text x="16" y="64" font-family="'Segoe UI', 'PingFang SC', 'Microsoft YaHei', sans-serif" font-size="12" fill="#94a3b8">数据表</text>
      <rect y="102" width="180" height="86" rx="10" fill="#fff" stroke="#e2e8f0"/>
      <text x="16" y="140" font-family="'Segoe UI', 'PingFang SC', 'Microsoft YaHei', sans-serif" font-size="24" font-weight="700" fill="#16a34a">正常</text>
      <text x="16" y="166" font-family="'Segoe UI', 'PingFang SC', 'Microsoft YaHei', sans-serif" font-size="12" fill="#94a3b8">连接状态</text>
    </g>
    <g transform="translate(930,350)">
      <rect width="180" height="180" rx="10" fill="#fff" stroke="#e2e8f0"/>
      <rect x="22" y="90" width="26" height="60" rx="5" fill="#3b82f6"/><rect x="62" y="50" width="26" height="100" rx="5" fill="#60a5fa"/><rect x="102" y="70" width="26" height="80" rx="5" fill="#93c5fd"/><rect x="142" y="20" width="26" height="130" rx="5" fill="#2563eb"/>
    </g>
  </g>
</svg>